<svg width="19" height="11" viewBox="0 0 19 11" fill="none" xmlns="http://www.w3.org/2000/svg">
<path d="M9.06504 10.7846H10.1784C10.1784 10.7846 10.5139 10.7486 10.6851 10.5673C10.8478 10.3982 10.8478 10.0853 10.8478 10.0853C10.8478 10.0853 10.8238 8.61102 11.5211 8.3945C12.2083 8.17952 13.0799 9.81754 14.0089 10.4472C14.7186 10.9284 15.2524 10.8251 15.2524 10.8251L17.7402 10.7915C17.7402 10.7915 19.0434 10.7111 18.4275 9.70048C18.3802 9.62015 18.078 8.95454 16.5905 7.58888C15.0316 6.16508 15.2408 6.3946 17.1142 3.92648C18.2524 2.42311 18.718 1.50425 18.5669 1.11407C18.4383 0.746832 17.5907 0.837875 17.5907 0.837875L14.8 0.861593C14.8 0.861593 14.5908 0.837875 14.4397 0.930449C14.2886 1.02149 14.1964 1.22959 14.1964 1.22959C14.1964 1.22959 13.7532 2.39939 13.1613 3.3871C11.9038 5.47498 11.4041 5.58974 11.2065 5.45203C10.7386 5.15289 10.8587 4.24322 10.8587 3.59137C10.8587 1.57082 11.1717 0.72235 10.2536 0.504304C9.95139 0.434682 9.72593 0.389543 8.94805 0.377302C7.94859 0.366591 7.10563 0.384952 6.62759 0.615239C6.3138 0.770549 6.06975 1.11407 6.20998 1.13166C6.39593 1.15462 6.81353 1.24336 7.03435 1.54251C7.32489 1.92963 7.31249 2.79417 7.31249 2.79417C7.31249 2.79417 7.47597 5.17814 6.92975 5.47422C6.54624 5.67467 6.03488 5.26 4.9192 3.36568C4.34974 2.40169 3.91896 1.32293 3.91896 1.32293C3.91896 1.32293 3.83761 1.12707 3.6873 1.01231C3.51143 0.886075 3.25575 0.840171 3.25575 0.840171L0.594385 0.863123C0.594385 0.863123 0.199248 0.875364 0.0605624 1.04674C-0.0680509 1.19593 0.0481659 1.51726 0.0481659 1.51726C0.0481659 1.51726 2.12922 6.32728 4.4892 8.7495C6.65083 10.9697 9.10378 10.8267 9.10378 10.8267L9.06504 10.7846Z" fill="#FFDE00"/>
</svg>
