<svg width="12" height="12" viewBox="0 0 12 12" fill="none" xmlns="http://www.w3.org/2000/svg">
<path fill-rule="evenodd" clip-rule="evenodd" d="M0 3.86149C0 1.93596 1.56095 0.375 3.48649 0.375H7.55405C9.47958 0.375 11.0405 1.93595 11.0405 3.86149V7.92905C11.0405 9.85458 9.47958 11.4155 7.55405 11.4155H3.48649C1.56096 11.4155 0 9.85458 0 7.92905V3.86149ZM9.66046 2.44505C9.66046 2.82615 9.35152 3.13509 8.97043 3.13509C8.58933 3.13509 8.2804 2.82615 8.2804 2.44505C8.2804 2.06396 8.58933 1.75502 8.97043 1.75502C9.35152 1.75502 9.66046 2.06396 9.66046 2.44505ZM7.36035 5.89527C7.36035 6.91152 6.53651 7.73536 5.52026 7.73536C4.504 7.73536 3.68017 6.91152 3.68017 5.89527C3.68017 4.87901 4.504 4.05518 5.52026 4.05518C6.53651 4.05518 7.36035 4.87901 7.36035 5.89527ZM8.28039 5.89527C8.28039 7.41965 7.04464 8.6554 5.52026 8.6554C3.99588 8.6554 2.76012 7.41965 2.76012 5.89527C2.76012 4.37089 3.99588 3.13513 5.52026 3.13513C7.04464 3.13513 8.28039 4.37089 8.28039 5.89527Z" fill="#FFDE00"/>
</svg>
