<svg width="13" height="11" viewBox="0 0 13 11" fill="none" xmlns="http://www.w3.org/2000/svg">
<path d="M12.7587 1.62057C12.2874 1.82915 11.784 1.97124 11.2541 2.03612C11.7941 1.7085 12.2096 1.19215 12.4061 0.576071C11.8996 0.873657 11.3382 1.09028 10.7406 1.21092C10.2633 0.696714 9.58317 0.375 8.8279 0.375C7.38073 0.375 6.20733 1.55623 6.20733 3.01145C6.20733 3.22056 6.2313 3.42163 6.27498 3.61412C4.0965 3.51064 2.1657 2.45756 0.873522 0.865614C0.646087 1.25274 0.518787 1.70261 0.518787 2.19268C0.518787 3.10957 0.982179 3.91546 1.68419 4.38892C1.25436 4.37498 0.850086 4.25594 0.497481 4.05862V4.09133C0.497481 5.37014 1.39923 6.43663 2.59926 6.67952C2.37928 6.73904 2.14705 6.77121 1.90896 6.77121C1.74172 6.77121 1.58139 6.75512 1.42107 6.7251C1.75716 7.77227 2.72336 8.53581 3.87332 8.55726C2.9785 9.26449 1.84452 9.68594 0.623183 9.68594C0.415456 9.68594 0.20826 9.6736 0 9.65001C1.16594 10.3975 2.53961 10.8345 4.02513 10.8345C8.8476 10.8345 11.4815 6.81518 11.4815 3.3353C11.4815 3.22324 11.4815 3.1101 11.4735 2.9975C11.9854 2.62807 12.4322 2.16105 12.7838 1.63129L12.7587 1.62057Z" fill="#FFDE00"/>
</svg>
